<svg xmlns="http://www.w3.org/2000/svg" viewBox="0 0 64 64">
  <defs>
    <linearGradient id="paint" x1="10" y1="10" x2="54" y2="54" gradientUnits="userSpaceOnUse">
      <stop offset="0" stop-color="#00a6ff"/>
      <stop offset="0.32" stop-color="#7c5cff"/>
      <stop offset="0.62" stop-color="#ff2d8f"/>
      <stop offset="1" stop-color="#ffc928"/>
    </linearGradient>
  </defs>
  <rect width="64" height="64" rx="14" fill="#ffffff"/>
  <path d="M14 36c0-13 10-23 23-23 10 0 18 5 18 13 0 4-3 7-7 7h-5c-3 0-5 2-5 5 0 4-3 8-8 8h-4c-7 0-12-4-12-10z" fill="url(#paint)" stroke="#1f2430" stroke-width="2.5"/>
  <circle cx="27" cy="24" r="4" fill="#ffffff"/>
  <circle cx="40" cy="23" r="4" fill="#ffffff"/>
  <circle cx="22" cy="35" r="4" fill="#ffffff"/>
  <path d="M42 42l11 11" stroke="#1f2430" stroke-width="5" stroke-linecap="round"/>
  <path d="M38 38l8 8" stroke="#ffffff" stroke-width="3" stroke-linecap="round"/>
</svg>
